<?xml version="1.0" standalone="no"?>
<!DOCTYPE svg PUBLIC "-//W3C//DTD SVG 20010904//EN"
 "http://www.w3.org/TR/2001/REC-SVG-20010904/DTD/svg10.dtd">
<svg version="1.0" xmlns="http://www.w3.org/2000/svg"
 width="503.000000pt" height="503.000000pt" viewBox="0 0 503.000000 503.000000"
 preserveAspectRatio="xMidYMid meet">
<metadata>
Created by potrace 1.11, written by Peter Selinger 2001-2013
</metadata>
<g transform="translate(0.000000,503.000000) scale(0.100000,-0.100000)"
fill="#000000" stroke="none">
<path d="M2276 5022 c-4 -7 11 -13 41 -18 27 -3 57 -8 68 -10 11 -2 36 -6 55
-10 19 -3 48 -8 63 -11 l28 -5 -33 -16 c-38 -19 -54 -48 -68 -122 -12 -62 -37
-108 -65 -117 -11 -4 -63 -8 -115 -8 -132 -2 -153 -9 -255 -80 -49 -34 -101
-66 -115 -70 -38 -12 -132 -14 -187 -4 -63 12 -159 14 -203 4 -45 -10 -110
-54 -141 -97 -14 -18 -46 -70 -73 -115 -61 -101 -100 -131 -281 -218 -202 -97
-261 -148 -327 -285 -44 -89 -84 -268 -80 -349 4 -57 32 -93 98 -124 119 -56
129 -62 138 -89 13 -36 -3 -64 -55 -103 -74 -54 -86 -115 -47 -227 33 -97 30
-140 -19 -238 -59 -121 -62 -173 -10 -232 61 -71 247 -113 367 -83 85 21 145
18 240 -14 75 -25 98 -38 107 -57 11 -23 9 -26 -15 -35 -15 -6 -72 -20 -127
-31 -208 -41 -223 -46 -277 -101 -58 -59 -93 -64 -172 -28 -53 25 -102 29
-133 13 -11 -6 -36 -29 -56 -51 -48 -53 -65 -61 -135 -61 -95 0 -170 -19 -264
-66 -61 -31 -103 -46 -139 -49 -58 -4 -68 -10 -50 -28 25 -25 107 -11 204 37
133 66 146 67 199 18 73 -67 97 -71 181 -33 89 41 127 24 210 -92 51 -71 67
-85 119 -110 48 -22 117 -22 203 3 120 34 166 28 270 -40 74 -48 123 -66 204
-74 119 -12 159 -25 188 -61 15 -18 34 -53 42 -77 17 -43 38 -59 117 -88 42
-15 82 -58 152 -160 65 -94 120 -139 183 -147 32 -5 37 -8 28 -20 -7 -7 -10
-16 -7 -18 3 -3 11 1 17 9 10 12 18 13 37 4 27 -13 29 -19 12 -37 -8 -8 -2 -7
16 3 22 11 35 12 49 5 18 -11 18 -11 -2 -30 -30 -28 -26 -34 8 -10 34 24 34
24 86 10 l39 -11 -29 -15 c-38 -19 -65 -43 -65 -56 0 -6 10 -1 23 11 12 12 40
27 62 35 34 11 47 11 90 -1 l49 -14 -52 -22 c-63 -25 -117 -67 -125 -96 -4
-15 5 -10 36 21 42 42 129 89 165 89 35 0 82 -12 82 -21 0 -5 -8 -9 -17 -9
-64 0 -225 -114 -273 -193 -30 -49 -24 -58 8 -10 53 81 150 150 261 188 48 16
83 22 103 18 30 -6 26 -9 -63 -51 -161 -77 -257 -169 -324 -314 -41 -87 -28
-89 16 -3 45 90 72 128 131 185 68 68 229 150 321 164 70 11 60 -5 -20 -33
-192 -66 -344 -223 -440 -451 -37 -86 -85 -231 -80 -237 3 -2 23 34 45 79 166
334 214 405 340 495 133 96 275 121 562 97 131 -10 429 -11 492 -1 132 21 241
75 298 147 65 82 77 182 40 324 -11 44 -20 93 -20 110 0 43 30 88 83 125 63
43 87 76 87 122 0 86 -42 133 -143 163 -30 9 -43 18 -47 36 -5 19 6 36 60 89
148 150 151 271 7 355 -105 62 -101 103 19 213 132 120 150 168 94 256 -48 76
-137 156 -285 257 -227 154 -332 277 -340 397 -1 27 8 100 22 163 31 143 27
214 -16 322 -84 213 -223 399 -493 663 -254 249 -409 348 -658 420 -133 39
-310 59 -324 37z m1884 -3148 c17 -43 14 -44 -77 -38 -104 8 -122 14 -97 35
11 9 15 9 10 2 -4 -7 -2 -13 3 -13 6 0 11 4 11 8 0 5 6 9 13 9 21 1 81 14 86
19 13 13 43 1 51 -22z"/>
</g>
</svg>
